# xmcd
# 
# Track frame offsets:
#     150
#     13258
#     31637
#     42351
# 
# Disc length: 988
# 
# Revision: 0
# Processed by: cddbd v1.5.2PL0 Copyright (c) Steve Scherf et al.
# Submitted via: fre:ac v1.0.17
# 
DISCID=2603da04
DTITLE=God Fires Man - The "Dark" EP
DYEAR=0
DGENRE=Alternative
TTITLE0=Dark
TTITLE1=Redefine
TTITLE2=Bombs
TTITLE3=Still?
EXTD=
EXTT0=
EXTT1=
EXTT2=
EXTT3=
PLAYORDER=
